<?xml version="1.0" encoding="utf-8"?>
<!-- Generator: Adobe Illustrator 20.0.0, SVG Export Plug-In . SVG Version: 6.00 Build 0)  -->
<svg version="1.1" id="Layer_1" xmlns="http://www.w3.org/2000/svg" xmlns:xlink="http://www.w3.org/1999/xlink" x="0px" y="0px"
	 viewBox="0 0 125 87" enable-background="new 0 0 125 87" xml:space="preserve">
<path fill-rule="evenodd" clip-rule="evenodd" fill="#003366" d="M99.7,20.2v24.9c-0.3,0.2-0.7,0.4-1,0.7c-2,1.8-4.1,3.5-6.4,5V20.2
	H99.7z M26.1,17.7c0-1.6,0.5-3,1.5-4.1c1.3-1.3,2.7-2,4.2-2c1.9,0,3.4,0.7,4.6,2c1.2,1.1,1.8,2.5,1.8,4.1c0,1.8-0.6,3.3-1.8,4.5
	c-1.2,1.2-2.7,1.8-4.6,1.8c-1.5,0-2.9-0.6-4.2-1.8C26.6,21,26.1,19.5,26.1,17.7z M22.8,20.5L32.2,36l10-15.6h10.5L37.4,45.2v19.2
	H27.2V45.2L12.4,20.5H22.8z M44.2,39.8L51.7,26v6.3h7l-0.2,7.3h-6.9v13.1c0,2.5,0.5,4.2,1.5,5c0.8,0.8,2.2,1.4,4,2l1.8,0.4l-3.4,6.4
	c-0.1,0-0.2,0-0.5,0.2l-2.2-0.8c-2.4-0.8-4.5-2-6.1-3.7c-0.9-1.1-1.6-2.4-2-3.8c-0.3-1.2-0.5-2.9-0.5-4.9V39.8H44.2z M23.5,57
	c-4.9,3.2-6.9,5.8-6.1,7.8c1.8,4.5,7.7,6.7,17.8,6.5c6.1-0.1,12.8-1,20-2.8c0.3-0.1,0.4-0.2,0.5-0.2c3.7-1,7.4-2.2,11.1-3.5
	c0.6,0,1.2-0.2,2-0.5c5.7-2.2,10.9-4.5,15.5-7c2.8-1.5,5.5-3.1,8-4.8c2.3-1.5,4.4-3.1,6.4-4.7c0.3-0.4,0.7-0.7,1-0.8
	c6.9-6.1,9.5-11.2,7.8-15.5c-0.7-1.3-2.1-1.9-4.3-1.8c9.1-2.4,14.2-2.1,15.5,1c1.6,4-2.4,10.5-12,19.5c-2.3,1.9-4.6,3.7-7,5.5
	c-2.3,1.6-4.6,3.1-6.9,4.6c-6.9,3.9-14.7,7.4-23.4,10.5c-15,5-28.6,7.6-40.6,8C16.7,79.1,9.8,77.2,8.2,73
	C6.6,69.1,11.7,63.8,23.5,57z M90.3,51.4H65.8c0.3,1.9,1,3.5,2.2,4.8c1.7,1.6,3.8,2.3,6.4,2.2c2.3-0.2,4-0.5,5.3-0.8
	c-3.5,1.7-7.2,3.2-11,4.6c-0.8,0.3-1.4,0.5-2,0.8c-2.4-1.2-4.3-3.1-5.9-5.6c-1.6-2.4-2.4-5.4-2.4-8.8c0-5.1,1.5-9.3,4.5-12.5
	c3.1-3,6.7-4.5,11-4.3c3.3-0.2,6.2,0.5,8.6,1.9c2.5,1.4,4.4,3.5,5.8,6c1.4,2.3,2,5.8,2,10.3V51.4z M74.2,38.5c-2.4,0-4.4,0.7-6,2.1
	c-1.5,1.4-2.3,3.2-2.3,5.2h16.8c-0.1-2.2-0.9-3.9-2.4-5.3C78.7,39.1,76.7,38.5,74.2,38.5z"/>
</svg>
